<?xml version="1.0" encoding="utf-8"?>
<!-- Generator: Adobe Illustrator 21.0.2, SVG Export Plug-In . SVG Version: 6.00 Build 0)  -->
<svg version="1.1" id="Capa_1" xmlns="http://www.w3.org/2000/svg" xmlns:xlink="http://www.w3.org/1999/xlink" x="0px" y="0px"
	 viewBox="0 0 149.8 149.8" style="enable-background:new 0 0 149.8 149.8;" xml:space="preserve">
<style type="text/css">
	.st0{fill:#FFA200;}
</style>
<g>
	<g>
		<path class="st0" d="M54.1,19.2c-1.1-2-3.6-2.7-5.6-1.6c-9.3,5.2-17.3,12.6-23.2,21.6c-1.2,1.9-0.7,4.5,1.2,5.7
			c1.9,1.2,4.5,0.7,5.7-1.2c5.1-7.8,12.1-14.4,20.3-18.9C54.5,23.8,55.2,21.2,54.1,19.2z"/>
	</g>
</g>
<g>
	<g>
		<path class="st0" d="M80.2,9.5c-2.3,0-4.1,1.9-4.1,4.1s1.9,4.1,4.1,4.1c31.5,0,57.1,25.6,57.1,57.1S111.6,132,80.1,132
			c-27.7,0-50.9-19.9-56-46.1l5.5,5.4c1.6,1.6,4.2,1.6,5.9,0c1.6-1.6,1.6-4.2,0-5.9L21.9,71.9c-0.8-0.8-1.8-1.2-3-1.2
			c-1.6,0-3.1,1-3.7,2.4L4.9,88.5c-1.3,1.9-0.8,4.5,1.2,5.7c1.9,1.3,4.5,0.7,5.7-1.2l4.1-6.1c5.6,30.2,32.1,53.3,64.3,53.3
			c36.1,0,65.4-29.3,65.4-65.4C145.5,38.7,116.3,9.5,80.2,9.5z"/>
	</g>
</g>
<g>
	<g>
		<path class="st0" d="M77.1,83.1h-12v-0.4c0-4.2,14.1-7.4,14.1-17.4c0-6.1-5.4-9.5-10.7-9.5c-5.2,0-10.3,3.2-10.3,8.8
			c0,2.9,1.4,3.7,3.2,3.7c2.3,0,3.8-1.3,3.8-2.6c0-2.5,1.6-3.4,3.4-3.4c2.6,0,3.5,1.8,3.5,3.3c0,5.8-14.4,9.9-14.4,17.1v4.4
			c0,1.3,1.8,2.2,3.1,2.2h16.3c1.1,0,2.2-1.5,2.2-3.2S78.2,83.1,77.1,83.1z"/>
	</g>
</g>
<g>
	<g>
		<path class="st0" d="M101.5,75.6h-2v-3.2c0-1.5-1.8-2.2-3.6-2.2c-1.8,0-3.6,0.6-3.6,2.2v3.2h-3.9l8.1-16.3
			c0.1-0.3,0.2-0.6,0.2-0.9c0-1.7-2.3-2.7-3.6-2.7c-1.1,0-2.3,0.5-3,1.8L79.6,78.4c-0.3,0.5-0.4,1-0.4,1.4c0,1.6,1.1,2.5,2.4,2.5
			h10.7v4.9c0,1.5,1.8,2.2,3.6,2.2c1.8,0,3.6-0.7,3.6-2.2v-4.9h2c1.1,0,2.2-1.7,2.2-3.3C103.7,77.3,102.9,75.6,101.5,75.6z"/>
	</g>
</g>
</svg>
