<?xml version="1.0" encoding="utf-8"?>
<!-- Generator: Adobe Illustrator 21.0.2, SVG Export Plug-In . SVG Version: 6.00 Build 0)  -->
<svg version="1.1" id="Capa_1" xmlns="http://www.w3.org/2000/svg" xmlns:xlink="http://www.w3.org/1999/xlink" x="0px" y="0px"
	 viewBox="0 0 149.8 149.8" style="enable-background:new 0 0 149.8 149.8;" xml:space="preserve">
<style type="text/css">
	.st0{fill:#FFA200;}
</style>
<g>
	<g>
		<g>
			<path class="st0" d="M144.7,94.7c-6.6-0.2-13,1.8-18.6,5.7c-1.1,0.7-2.1,1.3-3.2,1.9l23.1-31.1c1.2-1.6,1.5-3.9,0.7-5.8
				c-0.8-1.9-2.5-3.1-4.4-3.1h-20.9L96,41.6l-1.2-2.8c-2.4-5.5-7.4-9-12.9-9H57.1l-2.4-5.4h13c1.3,0,2.4-1.2,2.4-2.7
				c0-1.5-1.1-2.7-2.4-2.7H41.2c-1.3,0-2.4,1.2-2.4,2.7c0,1.5,1.1,2.7,2.4,2.7h8.1l2.4,5.4H41.2c-4,0-7.2,3.6-7.2,8.1
				s3.2,8.1,7.2,8.1h3.3l-7.2,16.2h-2.1c-1.5,0-2.9,0.8-3.9,2.2l-5.8,8.6h-4.1c-0.8,0-1.6,0.5-2,1.2L7.7,94.8
				c-0.8-0.1-1.7-0.1-2.6-0.1c-1.3,0-2.4,1.2-2.4,2.7c0,1.5,1.1,2.7,2.4,2.7c5.8-0.2,11.4,1.6,16.3,5.1c5.6,3.9,12,5.9,18.6,5.7
				c5.1,0.2,10.3-1.1,14.9-3.6l0,0c1.3-0.7,2.5-1.4,3.7-2.2c4.9-3.5,10.5-5.2,16.3-5.1c5.8-0.2,11.4,1.6,16.3,5.1
				c5.6,3.9,12.1,5.9,18.6,5.7c6.6,0.2,13-1.8,18.6-5.7c4.9-3.5,10.5-5.2,16.3-5.1c1.3,0,2.4-1.2,2.4-2.7
				C147.1,95.9,146,94.7,144.7,94.7z M93.3,46.1l6.6,5.4H72.5c-1.3,0-2.4-1.2-2.4-2.7v-2.7L93.3,46.1L93.3,46.1z M41.2,40.7
				c-1.3,0-2.4-1.2-2.4-2.7s1.1-2.7,2.4-2.7h40.7c3.4,0,6.6,2.1,8.3,5.4L41.2,40.7L41.2,40.7z M49.9,46.1h15.4v2.7
				c0,4.5,3.2,8.1,7.2,8.1h34.1l6.6,5.4H42.7L49.9,46.1z M35.2,67.7h49.3v2.7c0,1.5-1.1,2.7-2.4,2.7H31.6L35.2,67.7z M109.8,105.5
				c-5.8,0.2-11.4-1.6-16.3-5.1c-5.6-3.9-12-5.9-18.6-5.7c-6.6-0.2-13,1.8-18.6,5.7c-4.9,3.5-10.5,5.2-16.3,5.1
				c-5.8,0.2-11.4-1.6-16.3-5.1c-3.3-2.3-7-3.9-10.7-4.9l9.8-17.1h59.4c4,0,7.2-3.6,7.2-8.1v-2.7h7.2v8.1c0,1.5,1.1,2.7,2.4,2.7
				c1.3,0,2.4-1.2,2.4-2.7v-8.1h4.8v8.1c0,1.5,1.1,2.7,2.4,2.7c1.3,0,2.4-1.2,2.4-2.7v-8.1h4.8v8.1c0,1.5,1.1,2.7,2.4,2.7
				c1.3,0,2.4-1.2,2.4-2.7v-8.1h21.6l-27.7,37.4C112.9,105.4,111.4,105.5,109.8,105.5z"/>
			<path class="st0" d="M144.7,110.9c-6.6-0.2-13,1.8-18.6,5.7c-4.9,3.5-10.5,5.2-16.3,5.1c-5.8,0.2-11.4-1.6-16.3-5.1
				c-5.6-3.9-12.1-5.9-18.6-5.7c-6.6-0.2-13,1.8-18.6,5.7c-4.9,3.5-10.5,5.2-16.3,5.1c-5.8,0.2-11.4-1.6-16.3-5.1
				c-5.6-3.9-12-5.9-18.6-5.7c-1.3,0-2.4,1.2-2.4,2.7c0,1.5,1.1,2.7,2.4,2.7c5.8-0.2,11.4,1.6,16.3,5.1c5.6,3.9,12,5.9,18.6,5.7
				c6.6,0.2,13-1.8,18.6-5.7c4.9-3.5,10.5-5.2,16.3-5.1c5.8-0.2,11.4,1.6,16.3,5.1c5.6,3.9,12.1,5.9,18.6,5.7
				c6.6,0.2,13-1.8,18.6-5.7c4.9-3.5,10.5-5.2,16.3-5.1c1.3,0,2.4-1.2,2.4-2.7C147.1,112.1,146,110.9,144.7,110.9z"/>
		</g>
	</g>
</g>
</svg>
