<?xml version="1.0" encoding="utf-8"?>
<!-- Generator: Adobe Illustrator 21.0.2, SVG Export Plug-In . SVG Version: 6.00 Build 0)  -->
<svg version="1.1" id="Capa_1" xmlns="http://www.w3.org/2000/svg" xmlns:xlink="http://www.w3.org/1999/xlink" x="0px" y="0px"
	 viewBox="0 0 149.8 149.8" style="enable-background:new 0 0 149.8 149.8;" xml:space="preserve">
<style type="text/css">
	.st0{fill:#FFA200;}
</style>
<g>
	<path class="st0" d="M122.2,102.9v29.3c0,3.5,2.8,6.3,6.3,6.3c3.5,0,6.3-2.8,6.3-6.3V99.3C130.7,101.8,126.3,103,122.2,102.9z"/>
	<path class="st0" d="M105.2,86.3c0-0.1,0-0.2,0-0.3l-7.8,14.2c-0.5,0.8-0.7,1.8-0.8,2.7l-1.4,29.1c-0.2,3.5,2.5,6.4,6,6.6
		c0.1,0,0.2,0,0.3,0c3.3,0,6.1-2.6,6.3-6l1.3-27.6l3-5.5C107.9,96.3,105.6,91.5,105.2,86.3z"/>
	<circle class="st0" cx="120.8" cy="22.1" r="10.8"/>
	<path class="st0" d="M76.7,57.1l15.1,7.7c0-0.2,0.1-0.3,0.1-0.5L82,56.5C80.4,57.3,78.5,57.6,76.7,57.1z"/>
	<path class="st0" d="M131.9,81l-6.1,7.8c-0.9,1.2-2.7,1.4-3.9,0.5c-1.2-0.9-1.4-2.7-0.5-3.9l1.1-1.4c-2.7-0.5-5.1-1.9-6.7-4.2
		c-1-1.4-1.6-3-1.8-4.7c-1.1,0.1-2.2-0.2-3.1-0.9c-2-1.5-2.3-4.4-0.8-6.4c1.5-2,4.4-2.3,6.4-0.7c0.5-0.6,1.1-1.1,1.7-1.5l4.2-3
		c-3.5-2.1-2.5-4.6-5.7-7.1c0,0,0,0,0,0c-4.3-3.4-10.4-1.9-14.6,1.7c-1.7-1.4-14.4-11.3-16.1-12.6l1-1.3c0.9-1.2,0.7-3-0.5-3.9
		c-1.2-0.9-2.9-0.7-3.9,0.5c0,0,0,0,0,0l-1,1.3c-0.2-0.2,0,0-0.9-0.7l1-1.3c0.9-1.2,0.7-3-0.5-3.9c-1.2-0.9-2.9-0.7-3.9,0.5l-1,1.3
		l-0.5-0.4c-1.4-1.1-3.4-0.9-4.6,0.3c-1.5,1.5-1.3,3.9,0.3,5.2l0.5,0.4l-1,1.3c-0.9,1.2-0.7,3,0.5,3.9c1.2,1,3,0.7,3.9-0.5l1-1.3
		l0.9,0.7l-1,1.3c-1,1.2-0.7,3,0.6,4c1.2,0.9,2.9,0.6,3.8-0.5c0,0,0,0,0,0l1-1.3l16.1,12.6c-1.5,2.9-2.1,6.4-1.3,9.6
		c0.9,3.7,3.7,6.2,7.3,6.8c3.5,0.6,6.1,3.5,6.4,6.9c0.3,3.7,1.8,7.1,4.7,9.4c0,0,0,0,0,0c7.5,5.9,20.1,1.2,25.5-9.6
		c1.9-3.8,2.8-8.1,2-12.2L131.9,81z"/>
	<path class="st0" d="M147.2,48.7c0-6.8-5.6-12.3-12.4-12.3c0,0-23.4,0-28.1,0c-5.3,0-9.6,3.4-11.6,8.9l7.1,5.6
		c0.8-0.4,1.6-0.8,2.4-1.1c0-0.1,0.3-0.8,0.7-1.6c0.2-0.4,0.6-0.6,1-0.5c0.4,0.1,0.7,0.4,0.7,0.8l0,0.5c1.3-0.3,2.6-0.5,4-0.5
		c3.3,0,6.3,1,8.8,3c1.9,1.5,3.3,3.3,4.2,5.5c0.4,1,1.3,1.6,2.4,1.6c0.1,0,1.3-0.2,1.9-0.2l6.4-4.5v-5.2c0-0.6,0.5-1,1-1
		c0.6,0,1,0.5,1,1c0,0,0,0,0,0c0,4.9,0,4.2,0.1,9.8l-15.7,11.1c-2.4,1.7-2.9,4.9-1.3,7.3c1.7,2.3,4.9,2.9,7.3,1.3
		c1.9-1.3,16-11.3,17.9-12.7c1.4-1,2.2-2.6,2.2-4.3C147.2,50.3,147.3,53.3,147.2,48.7z"/>
	<circle class="st0" cx="34.8" cy="46.6" r="11"/>
	<path class="st0" d="M32.8,92.5l20,1.2c2.8,0.2,5.1-2,5.3-4.7c0.2-2.8-1.9-5.1-4.7-5.3l-17.3-1l-8.2-14l9.1,9.1l4.5,0.3l1.1-5.3
		c0.8-4-1.8-8-5.8-8.8l-13-2.6c-4.1-0.8-8,1.8-8.8,5.8L8.8,97.3c-0.7,3.5,1.1,6.9,4.2,8.3H5.7c-1.8,0-3.3,1.5-3.3,3.3
		c0,1.8,1.5,3.3,3.3,3.3h2.4c0.1,0.5,0.4,1,0.8,1.4l9.7,9.7l-9.7,9.7c-1.3,1.3-1.3,3.3,0,4.6c1.3,1.3,3.3,1.3,4.6,0l9.7-9.7l5.4,5.4
		c0.6,4.9,6.1,6.3,8.5,4.8c1.5-0.7,2.7-1.9,3.2-3.6l9.3-27.9c1.1-3.4-0.9-7-4.4-7.8c-3.3-0.7-0.5-0.4-14.7-1.3
		c-2.9-0.2-5.2-2.2-6-4.8l-5.2-18.9L28.8,90C29.7,91.5,31.2,92.4,32.8,92.5z M16.7,112h13.1l-6.6,6.6L16.7,112z M27.8,123.2l5.2-5.2
		l-2.6,7.8L27.8,123.2z"/>
	<path class="st0" d="M77.9,114c-7.8-6.5-5.9-12.2-4.7-14.4c0.3-0.5-0.1-1-0.7-1c-2.6,0.3-8,2.1-9.3,11c0,0,0,0,0,0.1
		c-1.6-1.4-3.9-1.7-5.7-1.6c-0.7,0-0.9,0.9-0.3,1.2c7.2,3.5-2,10.5-3.7,16.5c-2.2,7.7,2.9,11,5.7,12.3c0.5,0.2,1.1-0.3,0.9-0.9
		c-1.8-4.1-0.3-9.8,2.6-12.6c2.8-2.9,3.2-5.2,3-8.3c0-0.6,0.6-0.9,1-0.6c2.9,2.2,4,7.1,2.8,10.9c-0.1,0.5,0.3,0.9,0.8,0.8
		c1-0.2,2.5-0.9,3.3-2.5c0.1-0.3,0.5-0.5,0.8-0.4c3.9,1.3,5.8,7.8,4.2,13.2c-0.2,0.5,0.4,1,0.9,0.8C84.7,136.5,88.5,122.9,77.9,114z
		"/>
</g>
</svg>
